<svg xmlns="http://www.w3.org/2000/svg" viewBox="0 0 32 32" id="hammer"><g><path d="M29.27,12.48l-.71-.71a2.52,2.52,0,0,0-2.33-.67,3,3,0,0,0-.85-2.51L20.75,4a6.45,6.45,0,0,0-9.12,0l-.25.25a2.49,2.49,0,0,0,.76,4.05l2.37,1a.85.85,0,0,1,.5.63.87.87,0,0,1-.24.78,1,1,0,0,0,0,1.41l.09.09L3.65,21.75a4.69,4.69,0,0,0,3,8.26h.19a4.65,4.65,0,0,0,3.38-1.65L19.8,17.13a1,1,0,0,0,1,.17,2.47,2.47,0,0,0,.72,1.54l.71.71a2.5,2.5,0,0,0,3.53,0L29.27,16a2.5,2.5,0,0,0,0-3.53ZM8.73,27.06a2.7,2.7,0,0,1-3.95.16,2.61,2.61,0,0,1-.78-2,2.64,2.64,0,0,1,.94-1.94l11.34-9.64,2.09,2.09ZM27.85,14.6l-3.53,3.53a.5.5,0,0,1-.71,0l-.71-.71a.51.51,0,0,1,0-.7l.36-.36a1,1,0,0,0,0-1.41l-.71-.71a1,1,0,0,0-.71-.29,1,1,0,0,0-.7.29l-.71.71-3.66-3.66A2.93,2.93,0,0,0,17,9.56a2.87,2.87,0,0,0-1.67-2.09L13,6.43a.47.47,0,0,1-.29-.36.49.49,0,0,1,.13-.45L13,5.37a4.47,4.47,0,0,1,6.3,0L24,10a1,1,0,0,1,0,1.41,1,1,0,0,0,0,1.42l.71.71a1,1,0,0,0,1.42,0l.35-.36a.51.51,0,0,1,.71,0l.7.71h0a.5.5,0,0,1,0,.71Z"></path></g></svg>